<svg width="36" height="29" viewBox="0 0 36 29" fill="none" xmlns="http://www.w3.org/2000/svg">
<rect x="0.000457764" y="0.183838" width="35.7241" height="27.9324" rx="4" fill="#D0D9EF"/>
<path fill-rule="evenodd" clip-rule="evenodd" d="M8.68966 5.99976H11.5862C11.829 5.99976 12.215 6.08062 12.5115 6.29355C12.7568 6.46977 13 6.77148 13 7.40772C13 8.04397 12.7568 8.34567 12.5115 8.52189C12.215 8.73483 11.829 8.81569 11.5862 8.81569H0V10.8157H6.72461V16.5212H0V18.5212H10.6207C11.1048 18.5212 11.8529 18.6743 12.4511 19.104C12.9982 19.4969 13.4828 20.1598 13.4828 21.374C13.4828 22.5881 12.9982 23.251 12.4511 23.644C11.8529 24.0736 11.1048 24.2267 10.6207 24.2267H9.17241V26.2267H10.6207C11.4239 26.2267 12.6068 25.9945 13.6179 25.2684C14.68 24.5055 15.4828 23.242 15.4828 21.374C15.4828 19.5059 14.68 18.2424 13.6179 17.4796C12.6068 16.7534 11.4239 16.5212 10.6207 16.5212H8.72461V10.8157H11.5862C12.148 10.8157 12.9689 10.6558 13.6782 10.1463C14.4386 9.60013 15 8.69785 15 7.40772C15 6.1176 14.4386 5.21532 13.6782 4.66915C12.9689 4.15969 12.148 3.99976 11.5862 3.99976H8.68966V5.99976ZM27.0351 5.99976H24.1386C23.8958 5.99976 23.5098 6.08062 23.2133 6.29355C22.968 6.46977 22.7248 6.77148 22.7248 7.40772C22.7248 8.04397 22.968 8.34567 23.2133 8.52189C23.5098 8.73483 23.8958 8.81569 24.1386 8.81569H35.7246V10.8157H29.0027V16.5212H35.7246V18.5212H25.1039C24.6198 18.5212 23.8717 18.6743 23.2735 19.104C22.7264 19.4969 22.2419 20.1598 22.2419 21.374C22.2419 22.5881 22.7264 23.251 23.2735 23.644C23.8717 24.0736 24.6198 24.2267 25.1039 24.2267H26.5522V26.2267H25.1039C24.3007 26.2267 23.1178 25.9945 22.1068 25.2684C21.0446 24.5055 20.2419 23.242 20.2419 21.374C20.2419 19.5059 21.0446 18.2424 22.1068 17.4796C23.1178 16.7534 24.3007 16.5212 25.1039 16.5212H27.0027V10.8157H24.1386C23.5767 10.8157 22.7558 10.6558 22.0466 10.1463C21.2862 9.60013 20.7248 8.69785 20.7248 7.40772C20.7248 6.1176 21.2862 5.21532 22.0466 4.66915C22.7558 4.15969 23.5767 3.99976 24.1386 3.99976H27.0351V5.99976Z" fill="white"/>
</svg>
