<svg width="68" height="20" viewBox="0 0 68 20" fill="none" xmlns="http://www.w3.org/2000/svg">
<path d="M44.3341 5.51788L44.0544 6.93764C43.8241 6.53889 43.4152 6.16173 42.8279 5.80615C42.1914 5.4388 41.4705 5.25508 40.7412 5.27432C39.1776 5.27432 37.8658 5.90275 36.8058 7.15963C35.7438 8.40109 35.2127 9.97502 35.2127 11.8814C35.2127 13.2698 35.5932 14.4373 36.354 15.3838C36.7119 15.8353 37.1656 16.196 37.6801 16.4381C38.1947 16.6803 38.7563 16.7974 39.3217 16.7804C40.4835 16.7804 41.4517 16.4331 42.2266 15.7384L42.0545 16.6032L45.26 16.614L47.4619 5.61037L44.3341 5.51788ZM42.3373 12.9019C42.0853 13.2155 41.7679 13.4663 41.4086 13.6356C41.0493 13.8048 40.6575 13.8881 40.2626 13.8792C39.5526 13.8792 39.0091 13.6614 38.6321 13.2256C38.2552 12.7899 38.0667 12.1835 38.0667 11.4066C38.0392 10.5222 38.3289 9.65836 38.8805 8.98019C39.1332 8.66504 39.4521 8.41309 39.813 8.24327C40.1739 8.07345 40.5675 7.99019 40.9641 7.99977C41.6731 7.99977 42.2161 8.22535 42.593 8.67651C42.97 9.12767 43.1589 9.72683 43.1599 10.474C43.1856 11.3601 42.8926 12.2248 42.3373 12.9019Z" fill="black"/>
<path d="M33.0059 1.10245L29.7619 16.6759H32.912L36.361 0.000244141L33.0059 1.10245Z" fill="black"/>
<path d="M26.1096 9.78507L25.0625 9.53225C24.4642 9.36268 24.2039 9.04666 24.189 8.64586C24.1665 8.05545 24.7394 7.52824 25.5352 7.52824C26.3085 7.52824 26.8814 8.0385 26.9951 8.98347L29.9029 8.0277C29.4347 6.36282 27.906 5.27295 25.7745 5.27295C22.9923 5.27295 21.0104 6.93783 21.0987 9.19466C21.1585 10.7362 22.1457 11.7875 23.9766 12.1883L25.0521 12.4627C25.8 12.6524 26.1769 12.9684 26.1948 13.4324C26.2188 14.066 25.6429 14.5115 24.8486 14.5115C23.9512 14.5115 23.302 14.0043 23.1599 13.1903L20.267 14.1415C20.8878 15.8372 22.5541 16.7621 24.6691 16.7621C27.4723 16.7621 29.4347 15.1389 29.348 12.9083C29.2792 11.3266 28.1543 10.2753 26.1096 9.78507Z" fill="black"/>
<path d="M53.2878 9.78507L52.2408 9.53225C51.6425 9.36268 51.3822 9.04666 51.3672 8.64586C51.3448 8.05545 51.9177 7.52824 52.7135 7.52824C53.4868 7.52824 54.0597 8.0385 54.1734 8.98347L57.0812 8.0277C56.613 6.36282 55.0843 5.27295 52.9528 5.27295C50.1706 5.27295 48.1887 6.93783 48.2769 9.19466C48.3368 10.7362 49.324 11.7875 51.1548 12.1883L52.2303 12.4627C52.9782 12.6524 53.3552 12.9684 53.3731 13.4324C53.397 14.066 52.8212 14.5115 52.0269 14.5115C51.1294 14.5115 50.4802 14.0043 50.3381 13.1903L47.4453 14.1415C48.066 15.8372 49.7323 16.7621 51.8474 16.7621C54.6505 16.7621 56.613 15.1389 56.5262 12.9083C56.4574 11.3266 55.3326 10.2753 53.2878 9.78507Z" fill="black"/>
<path d="M65.1959 5.76616V5.75381C64.072 5.71071 62.961 6.01106 62.0023 6.61708L63.3141 0.000244141L59.9606 1.10091L56.8179 16.6757H59.968L61.2888 10.1472C61.6792 9.00803 62.4047 8.3683 63.3141 8.3683C64.3792 8.3683 64.9236 9.23156 64.6604 10.5604L63.4054 16.6757H66.5556L67.8778 10.1395C68.3834 7.68539 67.287 5.9234 65.1959 5.76616Z" fill="black"/>
<path d="M15.7225 0.000244141L17.5997 6.41155L6.60705 9.99411L5.19951 5.32783L15.7225 0.000244141Z" fill="#FF8CD1"/>
<path d="M15.0328 8.59277L16.753 13.3546L1.70522 20.0002L0 12.8767L15.0328 8.59277Z" fill="#0839CA"/>
</svg>
