<svg width="40" height="25" viewBox="0 0 40 25" fill="none" xmlns="http://www.w3.org/2000/svg">
<g clip-path="url(#clip0_1_3485)">
<path d="M3.77715 24.5705H3.26562V18.6397H3.77715V24.5705ZM7.55134 18.6397C8.04904 18.6397 8.49143 18.7088 8.89235 18.847C9.29327 18.9853 9.62507 19.1788 9.90157 19.4415C10.1781 19.7042 10.3854 20.0083 10.5375 20.3816C10.6896 20.741 10.7587 21.1558 10.7587 21.612C10.7587 22.0682 10.6896 22.483 10.5375 22.8424C10.3854 23.2019 10.1781 23.5198 9.90157 23.7825C9.62507 24.0452 9.29327 24.2387 8.89235 24.377C8.49143 24.5152 8.04904 24.5844 7.55134 24.5844H5.38083V18.6535H7.55134V18.6397ZM5.90618 19.1235V24.0728H7.55134C7.97991 24.0728 8.36701 24.0175 8.69881 23.8931C9.0306 23.7825 9.3071 23.6166 9.5283 23.3954C9.7495 23.1742 9.92922 22.9254 10.0398 22.6212C10.1504 22.3171 10.2195 21.9715 10.2195 21.5982C10.2195 21.2249 10.1642 20.8793 10.0398 20.5751C9.92922 20.271 9.7495 20.0083 9.5283 19.7871C9.3071 19.5659 9.0306 19.4 8.69881 19.2894C8.36701 19.1788 7.97991 19.1097 7.55134 19.1097H5.90618V19.1235ZM16.7725 18.5705C17.0214 18.5705 17.2702 18.5982 17.5053 18.6535C17.7403 18.7088 17.9615 18.7917 18.1689 18.9023C18.3762 19.0129 18.5698 19.1373 18.7357 19.2894C18.9016 19.4415 19.0536 19.6074 19.1642 19.8009L18.7357 20.0913C18.6389 19.9392 18.5145 19.8009 18.3762 19.6765C18.238 19.5521 18.0859 19.4415 17.92 19.3585C17.7541 19.2756 17.5744 19.2065 17.3808 19.1512C17.1873 19.0959 16.9937 19.082 16.7864 19.082C16.4269 19.082 16.1089 19.1373 15.8048 19.2618C15.5006 19.3862 15.238 19.5521 15.0168 19.7733C14.7956 19.9945 14.6159 20.2572 14.4914 20.5751C14.367 20.8793 14.2979 21.2249 14.2979 21.612C14.2979 21.9853 14.367 22.3309 14.4914 22.6489C14.6159 22.953 14.7956 23.2295 15.0168 23.4507C15.238 23.6719 15.5006 23.8516 15.8048 23.9622C16.1089 24.0867 16.4407 24.142 16.7864 24.142C16.9937 24.142 17.1873 24.1143 17.3808 24.0728C17.5744 24.0314 17.7541 23.9622 17.92 23.8793C18.0859 23.7963 18.238 23.6857 18.3762 23.5613C18.5145 23.4369 18.6389 23.2986 18.7357 23.1327L19.1642 23.4369C19.0398 23.6166 18.8877 23.7963 18.7218 23.9346C18.5559 24.0867 18.3624 24.2111 18.1689 24.3079C17.9615 24.4185 17.7403 24.4876 17.5053 24.5429C17.2702 24.5982 17.0214 24.6258 16.7725 24.6258C16.344 24.6258 15.943 24.5567 15.5698 24.4046C15.1965 24.2526 14.8785 24.0452 14.602 23.7825C14.3255 23.5198 14.1182 23.2019 13.9661 22.8286C13.814 22.4553 13.7311 22.0544 13.7311 21.5982C13.7311 21.1558 13.814 20.741 13.9661 20.3678C14.1182 19.9945 14.3394 19.6765 14.602 19.4138C14.8785 19.1512 15.1965 18.9438 15.5698 18.7917C15.943 18.6397 16.344 18.5705 16.7725 18.5705ZM20.7679 21.2664C20.8509 21.142 20.9338 21.0175 21.0444 20.9208C21.155 20.824 21.2656 20.741 21.3901 20.6857C21.5145 20.6304 21.6389 20.5751 21.7771 20.5475C21.9154 20.5198 22.0536 20.506 22.1781 20.506C22.4269 20.506 22.6481 20.5475 22.8555 20.6166C23.0629 20.6857 23.2426 20.7963 23.3808 20.9346C23.5329 21.0728 23.6435 21.2387 23.7265 21.4461C23.8094 21.6397 23.8509 21.8747 23.8509 22.1097V24.5567H23.367V22.2618C23.367 22.0544 23.3394 21.8747 23.2841 21.7226C23.2288 21.5567 23.1458 21.4185 23.0352 21.3079C22.9246 21.1973 22.7864 21.1143 22.6343 21.0452C22.4822 20.9899 22.2887 20.9622 22.0951 20.9622C21.9154 20.9622 21.7357 20.9899 21.5698 21.059C21.4039 21.1281 21.2656 21.2111 21.1412 21.3355C21.0168 21.4461 20.92 21.5982 20.8509 21.7503C20.7818 21.9162 20.7403 22.0959 20.7403 22.2894V24.5567H20.2841V18.4461H20.7679V21.2664ZM26.7403 20.5198C27.003 20.5198 27.2518 20.5751 27.4868 20.6719C27.7218 20.7687 27.9154 20.9069 28.0813 21.0867C28.2472 21.2664 28.3716 21.4876 28.4684 21.7364C28.5652 21.9853 28.6205 22.2618 28.6205 22.5521C28.6205 22.5936 28.6205 22.6212 28.6205 22.6627C28.6205 22.6903 28.6205 22.7318 28.6205 22.7595H25.2748C25.2887 22.9945 25.344 23.2019 25.4269 23.3816C25.5099 23.5613 25.6205 23.7134 25.7587 23.8378C25.897 23.9622 26.0629 24.059 26.2288 24.1281C26.4085 24.1973 26.602 24.2249 26.8094 24.2249C27.0859 24.2249 27.3348 24.1696 27.556 24.0728C27.7771 23.9761 27.9707 23.8378 28.1504 23.6581L28.4131 23.9899C28.2887 24.1143 28.1504 24.2249 28.026 24.3079C27.8877 24.3908 27.7633 24.4599 27.6251 24.5152C27.4868 24.5705 27.3486 24.5982 27.2103 24.6258C27.0721 24.6535 26.92 24.6535 26.7818 24.6535C26.4914 24.6535 26.2288 24.5982 25.9799 24.5014C25.7311 24.4046 25.5237 24.2664 25.344 24.0728C25.1642 23.8931 25.026 23.6719 24.9292 23.4231C24.8324 23.1742 24.7771 22.8977 24.7771 22.5936C24.7771 22.2894 24.8324 22.0129 24.9292 21.7641C25.026 21.5152 25.1642 21.294 25.344 21.1143C25.5237 20.9346 25.7311 20.7963 25.9661 20.6857C26.2011 20.5751 26.45 20.5198 26.7403 20.5198ZM26.7265 20.9484C26.5191 20.9484 26.3394 20.9899 26.1735 21.059C26.0076 21.1281 25.8555 21.2249 25.7311 21.3493C25.6066 21.4738 25.496 21.612 25.4131 21.7917C25.3301 21.9576 25.2748 22.1512 25.261 22.3447H28.1089C28.0951 22.1373 28.0398 21.9438 27.9707 21.7779C27.8877 21.612 27.791 21.4599 27.6665 21.3355C27.5421 21.2111 27.4039 21.1143 27.238 21.0452C27.0859 20.9761 26.92 20.9484 26.7265 20.9484ZM31.3854 20.5198C31.6758 20.5198 31.9523 20.5751 32.2149 20.6719C32.4638 20.7825 32.685 20.9346 32.8647 21.1281L32.5467 21.4599C32.3947 21.3079 32.2149 21.1834 32.0214 21.1005C31.8278 21.0175 31.6066 20.9761 31.3716 20.9761C31.1504 20.9761 30.9569 21.0175 30.7633 21.1005C30.5698 21.1834 30.4177 21.294 30.2795 21.4323C30.1412 21.5705 30.0306 21.7503 29.9615 21.9438C29.8785 22.1373 29.8509 22.3585 29.8509 22.5797C29.8509 22.8148 29.8924 23.0221 29.9615 23.2157C30.0444 23.4092 30.1412 23.5751 30.2795 23.7272C30.4177 23.8655 30.5836 23.9761 30.7633 24.059C30.9569 24.142 31.1504 24.1834 31.3716 24.1834C31.6066 24.1834 31.8278 24.142 32.0214 24.0452C32.2149 23.9484 32.3947 23.8378 32.5467 23.6857L32.8509 24.0175C32.6712 24.2249 32.45 24.377 32.2011 24.4738C31.9523 24.5705 31.6758 24.6258 31.3854 24.6258C31.0813 24.6258 30.8048 24.5705 30.556 24.4738C30.3071 24.3632 30.0859 24.2249 29.9062 24.0452C29.7265 23.8655 29.5882 23.6443 29.4776 23.3954C29.3808 23.1466 29.3255 22.8701 29.3255 22.5797C29.3255 22.2894 29.3808 22.0129 29.4776 21.7641C29.5744 21.5152 29.7126 21.294 29.9062 21.1143C30.0859 20.9346 30.3071 20.7825 30.556 20.6857C30.8186 20.5613 31.0813 20.5198 31.3854 20.5198ZM34.3163 22.2618H34.9661L36.6389 20.5751H37.2472L35.3532 22.4553L37.2887 24.5567H36.6804L34.9661 22.6903H34.3163V24.5567H33.8324V18.4461H34.3163V22.2618Z" fill="black"/>
<path d="M12.266 1.70416H7.91119V9.52905H12.266V1.70416Z" fill="#F26522"/>
<path d="M8.18729 5.61661C8.18729 4.02675 8.93383 2.61661 10.0813 1.70416C9.23798 1.04057 8.17347 0.639648 7.01218 0.639648C4.26102 0.639648 2.03522 2.86545 2.03522 5.61661C2.03522 8.36776 4.26102 10.5936 7.01218 10.5936C8.17347 10.5936 9.23798 10.1926 10.0813 9.52905C8.93383 8.61661 8.18729 7.20647 8.18729 5.61661Z" fill="#E51B24"/>
<path d="M18.141 5.61661C18.141 8.36776 15.9152 10.5936 13.1641 10.5936C12.0028 10.5936 10.9383 10.1926 10.0949 9.52905C11.2424 8.61661 11.9889 7.20647 11.9889 5.61661C11.9889 4.02675 11.2424 2.61661 10.0811 1.70416C10.9383 1.04057 12.0028 0.639648 13.1641 0.639648C15.9152 0.639648 18.141 2.86545 18.141 5.61661Z" fill="#F99F1C"/>
<path d="M17.6711 8.69965V8.53375H17.7402V8.5061H17.5743V8.53375H17.6434V8.69965H17.6711ZM17.989 8.69965V8.5061H17.9337L17.8784 8.64435L17.8231 8.5061H17.7678V8.69965H17.8093V8.54758L17.8646 8.672H17.9061L17.9614 8.54758V8.69965H17.989Z" fill="black"/>
</g>
<defs>
<clipPath id="clip0_1_3485">
<rect width="39" height="24" fill="white" transform="translate(0.0352173 0.639648)"/>
</clipPath>
</defs>
</svg>
