<svg width="71" height="28" viewBox="0 0 71 28" fill="none" xmlns="http://www.w3.org/2000/svg">
<path d="M47.8256 15.9746L48.5255 16.1863C48.4788 16.3862 48.4088 16.5508 48.3038 16.6802C48.1989 16.8095 48.0822 16.9154 47.9306 16.9742C47.7789 17.0447 47.5923 17.08 47.359 17.08C47.079 17.08 46.8574 17.0447 46.6708 16.9624C46.4958 16.8801 46.3442 16.739 46.2158 16.5273C46.0875 16.3274 46.0175 16.0569 46.0175 15.7394C46.0175 15.3161 46.1342 14.9868 46.3558 14.7516C46.5775 14.5164 46.9041 14.4106 47.3123 14.4106C47.6389 14.4106 47.8839 14.4811 48.0705 14.6105C48.2572 14.7399 48.3972 14.9398 48.4788 15.222L47.7789 15.3749C47.7556 15.2926 47.7323 15.2338 47.6973 15.1985C47.6506 15.1397 47.6039 15.0926 47.534 15.0574C47.464 15.0221 47.394 15.0103 47.324 15.0103C47.149 15.0103 47.0091 15.0809 46.9157 15.2338C46.8457 15.3396 46.8107 15.516 46.8107 15.7394C46.8107 16.0216 46.8574 16.2216 46.9391 16.3274C47.0207 16.4332 47.149 16.492 47.3007 16.492C47.4523 16.492 47.569 16.445 47.6389 16.3627C47.7323 16.2568 47.7906 16.1392 47.8256 15.9746Z" fill="#225E63"/>
<path d="M48.8054 15.739C48.8054 15.3157 48.9221 14.9864 49.1554 14.7512C49.3887 14.516 49.7153 14.3984 50.1352 14.3984C50.5668 14.3984 50.8934 14.516 51.1267 14.7395C51.36 14.9747 51.4766 15.2922 51.4766 15.7155C51.4766 16.0213 51.43 16.2682 51.325 16.4564C51.22 16.6445 51.08 16.7974 50.8817 16.9032C50.6951 17.0091 50.4501 17.0679 50.1702 17.0679C49.8786 17.0679 49.6453 17.0208 49.447 16.9267C49.2603 16.8327 49.1087 16.6916 48.9804 16.4799C48.8521 16.2682 48.8054 16.0448 48.8054 15.739ZM49.5986 15.739C49.5986 15.9977 49.6453 16.1859 49.7386 16.3035C49.8319 16.4211 49.9602 16.4799 50.1352 16.4799C50.3102 16.4799 50.4385 16.4211 50.5318 16.3153C50.6251 16.1977 50.6718 15.9977 50.6718 15.7155C50.6718 15.4686 50.6251 15.2922 50.5201 15.1863C50.4268 15.0687 50.2868 15.0217 50.1235 15.0217C49.9602 15.0217 49.8319 15.0805 49.7386 15.1981C49.6453 15.2922 49.5986 15.4803 49.5986 15.739Z" fill="#225E63"/>
<path d="M51.8849 14.4453H52.9231L53.3197 16.0211L53.7163 14.4453H54.7544V17.0324H54.1012V15.0568L53.5996 17.0324H53.0164L52.5148 15.0568V17.0324H51.8616V14.4453H51.8849Z" fill="#225E63"/>
<path d="M55.2677 14.4453H56.5858C56.8774 14.4453 57.0874 14.5159 57.2273 14.657C57.3673 14.7981 57.4373 14.9863 57.4373 15.245C57.4373 15.5037 57.3557 15.7153 57.204 15.8565C57.0524 16.0093 56.8074 16.0799 56.4925 16.0799H56.0609V17.0442H55.2677V14.4453ZM56.0609 15.5507H56.2592C56.4108 15.5507 56.5158 15.5272 56.5858 15.4684C56.6441 15.4096 56.6791 15.3508 56.6791 15.2685C56.6791 15.1862 56.6558 15.1156 56.5975 15.0568C56.5391 14.998 56.4458 14.9745 56.2942 14.9745H56.0725V15.5507H56.0609Z" fill="#225E63"/>
<path d="M57.8572 14.4453H58.6504V16.3974H59.8869V17.0324H57.8572V14.4453Z" fill="#225E63"/>
<path d="M60.2835 14.4453H61.0767V17.0324H60.2835V14.4453Z" fill="#225E63"/>
<path d="M63.223 16.5974H62.3248L62.1965 17.0207H61.3916L62.3598 14.4336H63.223L64.1912 17.0207H63.363L63.223 16.5974ZM63.0597 16.0447L62.7797 15.1156L62.4998 16.0447H63.0597Z" fill="#225E63"/>
<path d="M64.4361 14.4453H65.171L66.1392 15.88V14.4453H66.8857V17.0324H66.1392L65.1827 15.6095V17.0324H64.4361V14.4453Z" fill="#225E63"/>
<path d="M67.2357 14.4453H69.6503V15.0803H68.8454V17.0324H68.0522V15.0803H67.2473V14.4453H67.2357Z" fill="#225E63"/>
<path d="M38.2838 18.3849L40.5818 17.6558L39.8352 15.9859C39.287 16.6797 38.7388 17.5734 38.2838 18.3849ZM37.5023 10.7529L32.9997 0.639648L0.0352173 2.52118L9.16869 27.6396L26.7474 22.0538C25.6276 20.431 25.2193 18.5025 26.5141 17.5617C27.9606 16.5033 30.1419 17.7263 31.53 19.455C32.8714 17.1971 36.6391 11.9406 37.5023 10.7529Z" fill="#225E63"/>
<path d="M31.9727 7.94814C33.3492 7.94814 34.469 6.88977 34.469 5.5727C34.469 4.25563 33.3492 3.19727 31.9727 3.19727C30.5963 3.19727 29.4765 4.25563 29.4765 5.5727C29.4765 6.87801 30.5963 7.94814 31.9727 7.94814ZM29.9314 8.97122H34.014V19.7312H29.9314V8.97122Z" fill="#FEFEFE"/>
<path d="M27.9134 12.1113C27.9484 12.1231 27.9718 12.1113 27.9718 12.0761V9.34784C27.9718 9.31256 27.9484 9.27728 27.9134 9.25376C27.9134 9.25376 27.3769 8.90098 25.7438 8.8069C25.6621 8.75986 24.2274 8.7481 23.8425 8.8069C17.8934 9.28904 17.6718 13.6283 17.6718 13.8165V14.8748C17.6718 15.0042 17.6718 19.4376 23.8425 19.8256C24.449 19.8727 25.6272 19.8256 25.7438 19.8256C27.1669 19.8256 28.1467 19.3905 28.1467 19.3905C28.1817 19.3788 28.2051 19.3435 28.2051 19.3082V16.7564C28.2051 16.7211 28.1817 16.7093 28.1584 16.7329C28.1584 16.7329 27.7151 17.0856 25.7788 17.2856C25.2306 17.3444 24.9623 17.3208 24.764 17.2856C22.0111 16.8152 21.8828 14.7925 21.8828 14.7925C21.8828 14.7572 21.8711 14.6985 21.8711 14.6749V13.8988C21.8711 13.8635 21.8711 13.8047 21.8828 13.7812C21.8828 13.7812 22.0694 11.6057 24.764 11.3705H25.7788C26.9569 11.5234 27.9134 12.1113 27.9134 12.1113Z" fill="#FEFEFE"/>
<path d="M6.33368 19.696C6.33368 19.7313 6.35701 19.7548 6.392 19.7548H10.3697C10.4047 19.7548 10.428 19.7313 10.428 19.696V16.568C10.428 16.5327 10.4513 16.5092 10.4863 16.5092C10.4863 16.5092 16.8436 16.9678 16.8436 12.6755C16.8436 9.27702 12.8543 8.91247 11.5478 8.97127C11.5245 8.97127 6.392 8.97127 6.392 8.97127C6.35701 8.97127 6.33368 8.99479 6.33368 9.03007V19.696ZM10.358 14.122V11.3114H11.3378C11.3378 11.3114 12.7493 11.3702 12.8659 12.3463C12.8893 12.4168 12.8893 12.899 12.8659 12.9225C12.6793 14.0632 11.4545 14.122 11.4545 14.122H10.358Z" fill="#FEFEFE"/>
<path d="M32.0899 24.923C32.4165 24.923 32.6731 24.923 33.0931 24.7349C34.5395 23.9705 39.427 11.9405 44.5828 8.23619C44.6178 8.21267 44.6528 8.17739 44.6761 8.14211C44.7111 8.09507 44.7111 8.04803 44.7111 8.04803C44.7111 8.04803 44.7111 7.80109 43.9529 7.80109C39.3687 7.67173 34.5978 17.3734 32.0899 21.207C32.0549 21.254 31.8916 21.207 31.8916 21.207C31.8916 21.207 30.2119 19.2079 28.7538 18.4435C28.7188 18.4317 28.5555 18.373 28.3805 18.3847C28.2639 18.3847 27.5873 18.5258 27.2724 18.8551C26.8991 19.2549 26.9107 19.4784 26.9107 19.9605C26.9107 19.9958 26.9341 20.1604 26.9807 20.2427C27.3423 20.8777 28.9637 23.1356 30.3052 24.3821C30.5035 24.535 30.8184 24.923 32.0899 24.923Z" fill="#2BBC5D"/>
<path d="M45.9359 4.60272H49.7502C50.5085 4.60272 51.115 4.70856 51.5699 4.90847C52.0365 5.12014 52.4215 5.41413 52.7131 5.79044C53.0164 6.17851 53.238 6.62537 53.3663 7.13103C53.5063 7.63669 53.5763 8.17763 53.5763 8.75385C53.5763 9.64758 53.4713 10.3414 53.273 10.8353C53.0747 11.3292 52.7947 11.7408 52.4331 12.0818C52.0715 12.4111 51.6866 12.6345 51.2783 12.7521C50.7184 12.905 50.2052 12.9755 49.7502 12.9755H45.9359V4.60272ZM48.5021 6.49602V11.0705H49.132C49.6686 11.0705 50.0535 11.0117 50.2752 10.8941C50.4968 10.7765 50.6834 10.5648 50.8117 10.2708C50.94 9.97685 51.01 9.48295 51.01 8.81265C51.01 7.91892 50.8701 7.31918 50.5784 6.98992C50.2868 6.66065 49.8202 6.49602 49.1437 6.49602H48.5021Z" fill="#225E63"/>
<path d="M54.2878 10.2114L56.7374 10.0585C56.7958 10.4584 56.9007 10.7641 57.064 10.9758C57.3323 11.3168 57.7056 11.4814 58.1955 11.4814C58.5571 11.4814 58.8487 11.3991 59.047 11.2227C59.2454 11.0463 59.3503 10.8464 59.3503 10.623C59.3503 10.4113 59.257 10.2114 59.0704 10.035C58.8837 9.85863 58.4405 9.70575 57.7523 9.55288C56.6208 9.29417 55.8276 8.95314 55.3377 8.52979C54.8477 8.10645 54.6145 7.56551 54.6145 6.90697C54.6145 6.47187 54.7428 6.07204 54.9877 5.68398C55.2327 5.29591 55.606 5.00192 56.1075 4.77849C56.6091 4.55506 57.2857 4.44922 58.1489 4.44922C59.2104 4.44922 60.0269 4.64913 60.5751 5.04896C61.135 5.44878 61.4616 6.0838 61.5666 6.95401L59.1404 7.09513C59.0704 6.71882 58.9421 6.44835 58.7321 6.27196C58.5221 6.09556 58.2422 6.01324 57.8806 6.01324C57.5773 6.01324 57.3557 6.07204 57.204 6.2014C57.0524 6.33075 56.9824 6.48363 56.9824 6.67178C56.9824 6.80114 57.0407 6.93049 57.169 7.03633C57.2857 7.14216 57.5773 7.248 58.0322 7.34208C59.152 7.58903 59.9569 7.83598 60.4468 8.08293C60.9367 8.32988 61.2867 8.64739 61.5083 9.01194C61.7299 9.37648 61.8349 9.79983 61.8349 10.2585C61.8349 10.7994 61.6833 11.2933 61.3917 11.7402C61.1 12.1988 60.6801 12.5398 60.1552 12.775C59.6303 13.0102 58.9537 13.1278 58.1489 13.1278C56.7374 13.1278 55.7576 12.8573 55.2094 12.3046C54.6728 11.7519 54.3695 11.0581 54.2878 10.2114Z" fill="#225E63"/>
<path d="M62.4881 10.2114L64.9377 10.0585C64.996 10.4584 65.101 10.7641 65.2643 10.9758C65.5326 11.3168 65.9059 11.4814 66.3958 11.4814C66.7574 11.4814 67.049 11.3991 67.2473 11.2227C67.4456 11.0463 67.5506 10.8464 67.5506 10.623C67.5506 10.4113 67.4573 10.2114 67.2707 10.035C67.084 9.85863 66.6408 9.70575 65.9526 9.55288C64.8211 9.29417 64.0279 8.95314 63.538 8.52979C63.0597 8.10645 62.8147 7.56551 62.8147 6.90697C62.8147 6.47187 62.9431 6.07204 63.188 5.68398C63.433 5.29591 63.8062 5.00192 64.3078 4.77849C64.8094 4.55506 65.486 4.44922 66.3491 4.44922C67.4106 4.44922 68.2272 4.64913 68.7754 5.04896C69.3353 5.44878 69.6619 6.0838 69.7669 6.95401L67.3407 7.09513C67.2707 6.71882 67.1423 6.44835 66.9324 6.27196C66.7224 6.09556 66.4425 6.01324 66.0809 6.01324C65.7776 6.01324 65.556 6.07204 65.4043 6.2014C65.2527 6.33075 65.1827 6.48363 65.1827 6.67178C65.1827 6.80114 65.241 6.93049 65.3693 7.03633C65.486 7.14216 65.7776 7.248 66.2325 7.34208C67.3523 7.58903 68.1572 7.83598 68.6471 8.08293C69.137 8.32988 69.487 8.64739 69.7086 9.01194C69.9302 9.37648 70.0352 9.79983 70.0352 10.2585C70.0352 10.7994 69.8836 11.2933 69.5919 11.7402C69.3003 12.1988 68.8804 12.5398 68.3555 12.775C67.8306 13.0102 67.154 13.1278 66.3491 13.1278C64.9377 13.1278 63.9579 12.8573 63.4096 12.3046C62.8614 11.7519 62.5581 11.0581 62.4881 10.2114Z" fill="#225E63"/>
</svg>
