<svg width="40" height="25" viewBox="0 0 40 25" fill="none" xmlns="http://www.w3.org/2000/svg">
<g clip-path="url(#clip0_1_3484)">
<path d="M2.11347 9.47314L0.0303345 3.08716H0.921689L1.91484 6.23421C2.1892 7.09578 2.42631 7.87292 2.59639 8.62151H2.61626C2.79626 7.87664 3.06193 7.07591 3.34498 6.24291L4.42504 3.0884H5.30522L3.01972 9.47314H2.11347Z" fill="#0D2B67"/>
<path d="M5.75125 7.33036C5.77111 8.45883 6.48991 8.92189 7.32416 8.92189C7.75965 8.93553 8.19292 8.85463 8.59415 8.68477L8.73071 9.28687C8.24774 9.48772 7.72788 9.58459 7.20498 9.57116C5.79222 9.57116 4.94928 8.64132 4.94928 7.25835C4.94928 5.87539 5.7649 4.7854 7.09945 4.7854C8.59787 4.7854 8.99638 6.10381 8.99638 6.94551C8.9946 7.07553 8.98465 7.20531 8.96658 7.33408L5.75125 7.33036ZM8.19565 6.73322C8.20682 6.20313 7.9784 5.37757 7.03987 5.37757C6.19693 5.37757 5.82698 6.15471 5.75994 6.73322H8.19565Z" fill="#0D2B67"/>
<path d="M9.64863 6.31649C9.64863 5.7777 9.6387 5.31216 9.61139 4.88511H10.3438L10.3712 5.78515H10.4084C10.617 5.16443 11.1185 4.78083 11.6796 4.78083C11.7592 4.77988 11.8385 4.78948 11.9155 4.80938V5.59645C11.8222 5.57592 11.7268 5.56634 11.6312 5.5679C11.044 5.5679 10.6281 6.01358 10.5139 6.63802C10.4899 6.76661 10.477 6.89703 10.4754 7.02783V9.47347H9.64863V6.31649Z" fill="#0D2B67"/>
<path d="M13.3358 3.59704C13.3358 3.73401 13.2814 3.86537 13.1845 3.96222C13.0877 4.05907 12.9563 4.11348 12.8193 4.11348C12.6824 4.11348 12.551 4.05907 12.4542 3.96222C12.3573 3.86537 12.3029 3.73401 12.3029 3.59704C12.3015 3.52815 12.3142 3.4597 12.3401 3.39586C12.366 3.33202 12.4046 3.27411 12.4537 3.22568C12.5027 3.17725 12.561 3.1393 12.6252 3.11415C12.6893 3.08899 12.7579 3.07716 12.8268 3.07936C12.8953 3.07723 12.9635 3.08929 13.0271 3.11479C13.0907 3.14029 13.1483 3.17867 13.1963 3.22753C13.2444 3.27639 13.2818 3.33466 13.3062 3.39868C13.3306 3.4627 13.3415 3.53108 13.3383 3.59953L13.3358 3.59704ZM12.4084 4.88814H13.2439V9.47403H12.4084V4.88814Z" fill="#0D2B67"/>
<path d="M14.3299 9.47289V5.52014H13.6856V4.88576H14.3299V4.66727C14.3299 4.02296 14.4727 3.43576 14.86 3.06581C15.163 2.78416 15.5637 2.63144 15.9773 2.63999C16.2203 2.63919 16.4612 2.68426 16.6874 2.77282L16.5744 3.41713C16.4069 3.34451 16.2256 3.30935 16.0431 3.31409C15.333 3.31409 15.1542 3.93481 15.1542 4.64119V4.88948H16.2616V5.52386H15.1542V9.47289H14.3299Z" fill="#0D2B67"/>
<path d="M18.0126 3.59731C18.0126 3.73428 17.9581 3.86564 17.8613 3.96249C17.7644 4.05934 17.6331 4.11375 17.4961 4.11375C17.3591 4.11375 17.2278 4.05934 17.1309 3.96249C17.0341 3.86564 16.9797 3.73428 16.9797 3.59731C16.9781 3.52848 16.9906 3.46005 17.0163 3.39616C17.0419 3.33228 17.0803 3.27427 17.1291 3.22564C17.1778 3.17702 17.2359 3.13878 17.2998 3.11326C17.3638 3.08773 17.4323 3.07545 17.5011 3.07715C17.5696 3.07501 17.6378 3.08707 17.7014 3.11257C17.765 3.13807 17.8226 3.17646 17.8706 3.22532C17.9187 3.27417 17.9561 3.33245 17.9805 3.39647C18.0049 3.46049 18.0158 3.52887 18.0126 3.59731ZM17.0852 4.88592H17.917V9.47181H17.0852V4.88592Z" fill="#0D2B67"/>
<path d="M19.3876 7.33036C19.4075 8.45883 20.1263 8.92189 20.9605 8.92189C21.396 8.9356 21.8293 8.85471 22.2305 8.68477L22.3733 9.28687C21.8903 9.48772 21.3705 9.58459 20.8476 9.57116C19.4348 9.57116 18.5919 8.64132 18.5919 7.25835C18.5919 5.87539 19.4075 4.7854 20.7408 4.7854C22.2392 4.7854 22.6365 6.10381 22.6365 6.94551C22.6352 7.07555 22.6252 7.20536 22.6067 7.33408L19.3876 7.33036ZM21.832 6.73322C21.8407 6.20313 21.6135 5.37757 20.6762 5.37757C19.8333 5.37757 19.4646 6.15471 19.3963 6.73322H21.832Z" fill="#0D2B67"/>
<path d="M27.2533 2.74536V8.28716C27.2533 8.69559 27.262 9.15617 27.2905 9.47273H26.5457L26.5072 8.67697H26.4823C26.2266 9.18844 25.6692 9.57577 24.9194 9.57577C23.8108 9.57577 22.9591 8.63724 22.9591 7.24434C22.9492 5.71861 23.8977 4.78132 25.015 4.78132C25.7151 4.78132 26.1894 5.11403 26.3967 5.48274H26.4165V2.74536H27.2533ZM26.4178 6.75273C26.4194 6.63456 26.4069 6.51661 26.3805 6.40141C26.3209 6.12705 26.1689 5.88147 25.9499 5.70568C25.731 5.5299 25.4584 5.43455 25.1776 5.43557C24.3086 5.43557 23.8033 6.19285 23.8033 7.20835C23.8033 8.13694 24.2564 8.90416 25.159 8.90416C25.4455 8.90327 25.723 8.8042 25.9453 8.62347C26.1676 8.44275 26.3212 8.19128 26.3805 7.911C26.408 7.79345 26.4205 7.67291 26.4178 7.55222V6.75273Z" fill="#0D2B67"/>
<path d="M30.3399 9.47274C30.3598 9.15865 30.3771 8.6956 30.3771 8.28716V2.74536H31.2002V5.62551H31.2188C31.5131 5.11403 32.0432 4.78257 32.7831 4.78257C33.9202 4.78257 34.7247 5.73103 34.7172 7.12269C34.7172 8.76139 33.6831 9.57702 32.6602 9.57702C31.996 9.57702 31.4659 9.32128 31.1245 8.71546H31.0972L31.0575 9.47274H30.3399ZM31.2089 7.63416C31.2114 7.73617 31.2243 7.83767 31.2474 7.93707C31.3161 8.21533 31.4758 8.46264 31.7012 8.63967C31.9266 8.81671 32.2047 8.9133 32.4913 8.91409C33.3603 8.91409 33.8842 8.20398 33.8842 7.15124C33.8842 6.23257 33.41 5.4455 32.5186 5.4455C32.2235 5.451 31.9385 5.55448 31.7086 5.73967C31.4787 5.92485 31.3169 6.18123 31.2486 6.46845C31.2206 6.57813 31.2044 6.6905 31.2002 6.80364L31.2089 7.63416Z" fill="#0D2B67"/>
<path d="M35.6298 4.88574L36.6341 7.59705C36.7384 7.89997 36.8526 8.25998 36.9271 8.53558H36.9457C37.0326 8.26123 37.1257 7.91486 37.2412 7.57843L38.1524 4.88574H39.035L37.7799 8.15446C37.1841 9.72737 36.7756 10.5331 36.207 11.0259C35.9182 11.2913 35.5659 11.4777 35.1841 11.5672L34.9755 10.8658C35.2428 10.7776 35.4906 10.639 35.7055 10.4573C36.0081 10.2063 36.2482 9.88845 36.4069 9.52874C36.4403 9.4669 36.4626 9.39966 36.4727 9.33011C36.4654 9.25469 36.4462 9.18093 36.4156 9.11161L34.7198 4.89071L35.6298 4.88574Z" fill="#0D2B67"/>
<path d="M13.8609 12.6015L11.3371 18.9937L10.3141 13.5587C10.2729 13.292 10.1376 13.0489 9.93266 12.8733C9.72772 12.6977 9.4667 12.6013 9.19685 12.6015H5.05788L5.00201 12.8734C5.84992 13.0596 6.81328 13.3563 7.398 13.6717C7.75553 13.8678 7.85733 14.0379 7.97278 14.4997L9.91191 21.993H12.4805L16.4158 12.6015H13.8609Z" fill="#0D2B67"/>
<path d="M17.456 12.6001L15.4473 21.9916H17.8781L19.8818 12.6001H17.456Z" fill="#0D2B67"/>
<path d="M23.0707 15.2048C23.0781 14.8683 23.3997 14.5108 24.1011 14.4152C24.923 14.3392 25.7502 14.4845 26.497 14.8361L26.9229 12.8498C26.1965 12.5762 25.4272 12.4345 24.651 12.4314C22.2488 12.4314 20.5617 13.7101 20.5443 15.535C20.5319 16.8845 21.7523 17.6454 22.6709 18.0899C23.6181 18.5492 23.9372 18.8434 23.931 19.2581C23.931 19.8887 23.1762 20.1643 22.4798 20.1743C21.2569 20.1941 20.5493 19.8453 19.9832 19.5833L19.545 21.6404C20.1098 21.8999 21.1589 22.1271 22.2476 22.137C24.795 22.137 26.4685 20.8744 26.4685 18.9241C26.4784 16.4413 23.0421 16.3084 23.0657 15.1998" fill="#0D2B67"/>
<path d="M30.1042 18.6673L31.3954 15.1403L32.1216 18.6673H30.1042ZM31.0266 12.6016C30.8049 12.5994 30.5876 12.6639 30.403 12.7868C30.2183 12.9097 30.0749 13.0852 29.9913 13.2906L26.3476 21.9919H28.9L29.4066 20.589H32.5102L32.8019 21.9919H35.0539L33.1011 12.6016H31.0266Z" fill="#0D2B67"/>
</g>
<defs>
<clipPath id="clip0_1_3484">
<rect width="39" height="24" fill="white" transform="translate(0.0352173 0.639648)"/>
</clipPath>
</defs>
</svg>
